HIERARCHY
ROOT Hips
{
	OFFSET 56.877701 -32.693596 43.373703
	CHANNELS 6 Xposition Yposition Zposition Zrotation Xrotation Yrotation
	JOINT Chest
	{
		OFFSET -0.779999 1.005800 5.403099
		CHANNELS 6 Xposition Yposition Zposition Zrotation Xrotation Yrotation
		JOINT Chest2
		{
			OFFSET 0.000000 0.000000 4.236801
			CHANNELS 6 Xposition Yposition Zposition Zrotation Xrotation Yrotation
			JOINT Neck
			{
				OFFSET 0.000000 0.000000 9.874401
				CHANNELS 6 Xposition Yposition Zposition Zrotation Xrotation Yrotation
				JOINT Head
				{
					OFFSET 0.000000 0.000002 2.173893
					CHANNELS 6 Xposition Yposition Zposition Zrotation Xrotation Yrotation
					End Site
					{
						OFFSET 0.000000 0.000000 6.508102
					}
				}
			}
			JOINT LeftCollar
			{
				OFFSET 2.681599 -0.377600 5.432499
				CHANNELS 6 Xposition Yposition Zposition Zrotation Xrotation Yrotation
				JOINT LeftShoulder
				{
					OFFSET 5.161499 0.000000 0.000000
					CHANNELS 6 Xposition Yposition Zposition Zrotation Xrotation Yrotation
					JOINT LeftElbow
					{
						OFFSET 0.000000 0.000000 -10.869099
						CHANNELS 6 Xposition Yposition Zposition Zrotation Xrotation Yrotation
						JOINT LeftWrist
						{
							OFFSET 0.000000 0.000000 -13.344799
							CHANNELS 6 Xposition Yposition Zposition Zrotation Xrotation Yrotation
							End Site
							{
								OFFSET 0.000000 0.000000 -2.173901
							}
						}
					}
				}
			}
			JOINT RightCollar
			{
				OFFSET -2.381901 -1.419600 6.136600
				CHANNELS 6 Xposition Yposition Zposition Zrotation Xrotation Yrotation
				JOINT RightShoulder
				{
					OFFSET -4.550499 0.000000 0.000000
					CHANNELS 6 Xposition Yposition Zposition Zrotation Xrotation Yrotation
					JOINT RightElbow
					{
						OFFSET 0.000000 0.000000 -11.106499
						CHANNELS 6 Xposition Yposition Zposition Zrotation Xrotation Yrotation
						JOINT RightWrist
						{
							OFFSET 0.000000 0.000000 -12.874298
							CHANNELS 6 Xposition Yposition Zposition Zrotation Xrotation Yrotation
							End Site
							{
								OFFSET 0.000000 0.000000 -2.173901
							}
						}
					}
				}
			}
		}
	}
	JOINT LeftHip
	{
		OFFSET 2.431900 0.469601 -2.489399
		CHANNELS 6 Xposition Yposition Zposition Zrotation Xrotation Yrotation
		JOINT LeftKnee
		{
			OFFSET 0.000000 -0.000004 -18.200201
			CHANNELS 6 Xposition Yposition Zposition Zrotation Xrotation Yrotation
			JOINT LeftAnkle
			{
				OFFSET 0.000000 0.000000 -16.279900
				CHANNELS 6 Xposition Yposition Zposition Zrotation Xrotation Yrotation
				End Site
				{
					OFFSET 0.000000 -8.394100 0.000000
				}
			}
		}
	}
	JOINT RightHip
	{
		OFFSET -1.987999 -0.073502 -2.713001
		CHANNELS 6 Xposition Yposition Zposition Zrotation Xrotation Yrotation
		JOINT RightKnee
		{
			OFFSET 0.000000 -0.000004 -19.547802
			CHANNELS 6 Xposition Yposition Zposition Zrotation Xrotation Yrotation
			JOINT RightAnkle
			{
				OFFSET 0.000000 0.000000 -14.881199
				CHANNELS 6 Xposition Yposition Zposition Zrotation Xrotation Yrotation
				End Site
				{
					OFFSET 0.000000 -7.922699 0.000000
				}
			}
		}
	}
}
MOTION
Frames: 10
Frame Time: 0.041667
-36.055702 -45.785896 44.994701 4705.971925 8.298473 2.066419 -0.779997 1.005793 5.403100 -27.045271 -17.032813 3.792279 -0.000001 0.000002 4.236804 21.038106 1.394413 1.556442 0.000003 -0.000004 9.874399 -60.060818 8.037061 -2.137859 0.000002 0.000000 2.173894 -3.257937 -0.521047 -7.877312 2.681605 -0.377605 5.432505 -14.095999 6.436942 -10.416669 5.161499 0.000003 -0.000009 203.464614 -185.289399 164.552958 0.000004 0.000003 -10.869101 -27.326158 2.482852 -2.624643 0.000002 -0.000001 -13.344795 53.148864 15.961677 -79.535128 -2.381896 -1.419604 6.136593 -5.402918 -9.540699 16.242687 -4.550511 0.000005 0.000009 -1194.085144 -498.399177 -380.862085 -0.000008 0.000001 -11.106497 694.458610 -2.804938 720.117554 0.000005 -0.000004 -12.874307 -382.275470 11.956051 -19.600474 2.431898 0.469595 -2.489398 -317.764798 -35.033017 -5.278318 0.000002 -0.000005 -18.200201 372.762246 32.921932 -8.182287 -0.000000 -0.000001 -16.279900 -22.755166 59.562753 -9.688053 -1.988004 -0.073500 -2.712994 -2.266356 -6.435204 -2.463660 -0.000009 0.000001 -19.547798 -1649.518005 161.371825 -182.866075 -0.000009 -0.000004 -14.881203 1988.492753 147.470164 -518.835813
-36.164413 -45.850597 44.956207 4705.959685 8.706551 2.368135 -0.779992 1.005799 5.403097 -27.188335 -17.282067 3.327261 0.000000 0.000003 4.236795 20.934905 1.460376 1.559484 -0.000007 0.000008 9.874403 -60.157233 8.295318 -2.255121 0.000006 0.000005 2.173892 -3.258298 -0.587448 -7.805838 2.681592 -0.377598 5.432502 -14.320943 6.532959 -10.691753 5.161509 0.000000 -0.000007 199.841363 -186.576644 164.956937 -0.000001 -0.000002 -10.869091 -16.286769 0.356679 -2.062666 -0.000002 -0.000003 -13.344803 39.322089 13.414813 -76.424756 -2.381903 -1.419591 6.136597 -5.455438 -9.437099 15.830297 -4.550499 -0.000001 0.000010 -1194.480093 -498.815054 -381.033960 -0.000005 0.000004 -11.106502 694.272118 -2.879190 720.098375 0.000003 -0.000001 -12.874301 -382.058243 11.535504 -17.535368 2.431904 0.469604 -2.489398 -316.383815 -36.107064 -4.431931 0.000002 -0.000002 -18.200203 371.491967 33.622282 -8.310172 -0.000002 0.000008 -16.279898 -21.523948 59.360313 -9.889737 -1.988001 -0.073502 -2.712999 -2.819693 -6.858486 -2.955930 -0.000013 -0.000007 -19.547800 -1649.160431 161.222708 -182.931700 -0.000003 -0.000005 -14.881194 1988.584114 147.499124 -518.644459
-36.272804 -45.913101 44.912502 4706.022195 9.178871 2.539401 -0.780006 1.005797 5.403095 -27.385334 -17.742451 2.833149 0.000011 -0.000002 4.236799 20.919051 1.572722 1.571858 0.000000 0.000010 9.874407 -60.363204 8.468561 -2.032900 -0.000002 0.000006 2.173892 -3.369115 -0.537960 -7.949635 2.681604 -0.377596 5.432505 -14.718265 6.747050 -10.928846 5.161503 0.000006 0.000003 196.939666 -187.591788 165.324415 0.000006 -0.000000 -10.869096 -11.247088 -1.114638 -1.048611 -0.000007 0.000003 -13.344798 30.128087 10.979579 -74.346582 -2.381906 -1.419597 6.136603 -5.260678 -9.268675 15.875894 -4.550500 -0.000006 0.000008 -1194.936350 -498.841391 -381.165373 -0.000000 -0.000000 -11.106514 694.427737 -2.952721 720.068431 0.000008 -0.000005 -12.874306 -381.879592 11.214739 -15.345401 2.431896 0.469607 -2.489410 -314.347435 -37.237081 -3.021931 0.000000 -0.000004 -18.200195 370.833674 34.111365 -8.804729 -0.000006 0.000005 -16.279903 -21.059649 59.574979 -10.410206 -1.988002 -0.073499 -2.713005 -3.171215 -7.296222 -3.316204 -0.000010 -0.000006 -19.547800 -1648.802857 161.162453 -183.069137 -0.000011 -0.000003 -14.881191 1988.678753 147.452651 -518.588397
-36.374893 -45.979301 44.872208 4706.144155 9.667214 2.752890 -0.780004 1.005795 5.403101 -27.667035 -18.111548 2.423562 -0.000006 -0.000006 4.236802 20.849251 1.650700 1.588671 -0.000003 0.000002 9.874395 -60.619042 8.760995 -2.052940 0.000001 -0.000000 2.173897 -3.255535 -0.562695 -7.868828 2.681605 -0.377604 5.432501 -14.781614 6.748189 -11.426471 5.161505 0.000001 -0.000007 194.172934 -188.613174 165.652824 0.000007 0.000001 -10.869095 -6.598921 -2.520317 0.281492 0.000001 -0.000000 -13.344794 21.034865 9.470898 -73.648489 -2.381893 -1.419605 6.136593 -5.687332 -9.822853 15.550456 -4.550508 -0.000002 0.000009 -1194.623145 -499.138531 -381.603051 0.000000 -0.000002 -11.106502 694.990272 -3.013405 720.059361 0.000003 0.000005 -12.874298 -381.835688 10.917301 -13.253419 2.431894 0.469599 -2.489389 -312.636828 -38.263229 -1.770864 0.000005 -0.000005 -18.200197 370.240513 34.500682 -9.170666 -0.000002 0.000005 -16.279900 -20.549416 59.740980 -10.920005 -1.988002 -0.073504 -2.713001 -3.414006 -7.694974 -3.724276 -0.000002 -0.000007 -19.547798 -1648.579264 161.192970 -183.219046 -0.000007 -0.000003 -14.881197 1988.629794 147.455520 -518.603095
-36.485100 -46.043991 44.835705 4706.430913 10.225946 2.922890 -0.779999 1.005795 5.403102 -28.124511 -18.578178 1.892624 0.000009 0.000001 4.236805 20.834421 1.716787 1.598953 -0.000002 0.000001 9.874396 -60.699201 8.953763 -1.955341 -0.000002 0.000007 2.173888 -3.353490 -0.488649 -7.858162 2.681596 -0.377596 5.432495 -15.127804 6.952590 -11.634613 5.161503 0.000005 -0.000004 191.841231 -189.402225 165.824289 -0.000006 -0.000001 -10.869100 -2.294194 -3.762118 1.782126 0.000002 0.000000 -13.344788 12.682592 8.686328 -73.130098 -2.381902 -1.419595 6.136592 -5.801215 -9.877574 15.311992 -4.550499 0.000003 0.000014 -1194.834170 -499.496980 -381.808230 0.000002 0.000000 -11.106503 694.933226 -3.045110 720.021166 -0.000001 0.000005 -12.874292 -381.291267 10.690149 -11.613696 2.431900 0.469603 -2.489393 -310.799617 -39.292043 -0.300716 0.000004 -0.000007 -18.200199 369.455915 34.937449 -9.477234 -0.000003 0.000002 -16.279898 -20.221634 59.740482 -11.302203 -1.988007 -0.073499 -2.712997 -3.843040 -8.169525 -4.135358 -0.000003 0.000000 -19.547808 -1648.507356 161.227858 -183.324299 -0.000011 -0.000005 -14.881202 1988.738422 147.395305 -518.641126
-36.590996 -46.110596 44.802807 4706.602706 10.576871 3.087675 -0.780005 1.005804 5.403092 -28.425775 -18.872535 1.579782 0.000006 -0.000003 4.236796 20.785227 1.801457 1.606855 0.000003 -0.000000 9.874396 -60.873262 9.217102 -1.876616 0.000003 0.000005 2.173888 -3.348989 -0.500373 -7.782635 2.681604 -0.377594 5.432500 -15.356874 7.090480 -11.955945 5.161500 -0.000002 -0.000006 189.425297 -190.228732 166.035082 0.000002 0.000004 -10.869093 2.205903 -4.818931 3.372577 -0.000012 -0.000001 -13.344791 5.279357 8.829065 -74.131199 -2.381902 -1.419597 6.136587 -5.970008 -9.981658 14.986849 -4.550497 0.000003 0.000014 -1194.932416 -499.814501 -381.972018 -0.000003 -0.000004 -11.106511 694.735150 -3.089943 719.980404 0.000006 -0.000002 -12.874294 -380.716684 10.539584 -10.220846 2.431887 0.469604 -2.489400 -309.302603 -40.037268 0.804517 0.000002 -0.000005 -18.200203 368.866880 35.233862 -9.735964 0.000000 0.000003 -16.279898 -20.074472 59.715012 -11.524912 -1.988005 -0.073498 -2.712998 -4.154469 -8.447235 -4.520136 -0.000003 0.000003 -19.547806 -1648.201363 161.222913 -183.432380 -0.000002 -0.000002 -14.881196 1988.680064 147.394499 -518.736803
-36.698593 -46.166592 44.764004 4706.850997 11.032583 3.260119 -0.779996 1.005801 5.403095 -28.834695 -19.203512 1.162895 -0.000001 -0.000003 4.236799 20.816938 1.860680 1.624077 -0.000011 0.000010 9.874398 -61.129756 9.401122 -1.734514 0.000003 0.000005 2.173887 -3.349381 -0.456200 -7.809797 2.681592 -0.377595 5.432494 -15.631605 7.211166 -12.169560 5.161500 0.000000 -0.000005 187.898955 -190.918363 166.116484 -0.000002 0.000001 -10.869099 -0.139382 -5.483334 3.873042 0.000001 0.000006 -13.344797 5.183001 8.339223 -73.142385 -2.381904 -1.419596 6.136592 -6.425422 -10.524891 14.815288 -4.550507 0.000000 0.000004 -1194.285241 -499.874990 -382.122310 -0.000005 -0.000002 -11.106507 694.872902 -3.128541 719.942920 0.000007 -0.000007 -12.874298 -380.365585 10.509055 -9.358133 2.431900 0.469605 -2.489393 -307.579783 -40.888002 2.189663 0.000003 -0.000008 -18.200195 368.526190 35.563077 -10.179212 -0.000001 -0.000001 -16.279896 -20.107836 59.750536 -11.982635 -1.988001 -0.073498 -2.713003 -4.613716 -8.885224 -4.950505 0.000001 -0.000002 -19.547798 -1648.201363 161.139435 -183.461422 -0.000002 -0.000003 -14.881204 1988.754377 147.219209 -518.676479
-36.807091 -46.226692 44.724503 4706.845752 11.297859 3.624310 -0.780004 1.005798 5.403090 -28.999836 -19.186070 0.784805 0.000004 0.000004 4.236800 20.696402 1.886334 1.632163 -0.000002 0.000001 9.874405 -61.246381 9.629523 -1.829797 0.000004 -0.000004 2.173892 -3.267427 -0.516188 -7.730898 2.681603 -0.377601 5.432508 -15.640853 7.160013 -12.497496 5.161499 -0.000002 -0.000001 186.694219 -191.463221 166.140663 0.000001 0.000005 -10.869096 -0.602504 -6.212595 4.701277 -0.000007 -0.000002 -13.344799 4.690745 8.516404 -72.779757 -2.381894 -1.419600 6.136601 -6.905024 -11.083552 14.463228 -4.550502 -0.000008 0.000001 -1193.880129 -500.141312 -382.401692 0.000002 0.000001 -11.106495 694.437573 -3.151483 719.891775 0.000004 -0.000005 -12.874293 -379.962440 10.398443 -8.454993 2.431889 0.469603 -2.489403 -305.868466 -41.658673 3.212227 0.000004 -0.000002 -18.200195 367.670695 36.025542 -10.397144 -0.000002 -0.000004 -16.279902 -20.020902 59.446169 -12.018456 -1.987998 -0.073502 -2.713001 -4.883903 -9.144670 -5.501978 -0.000003 0.000001 -19.547796 -1648.284637 161.015563 -183.486284 -0.000010 -0.000008 -14.881195 1989.009225 147.300761 -518.539001
-36.913605 -46.280396 44.680801 4706.853183 11.487034 3.883883 -0.779997 1.005795 5.403092 -29.131023 -19.235213 0.429909 0.000006 0.000005 4.236798 20.672163 1.937794 1.641030 -0.000003 -0.000007 9.874398 -61.354872 9.786310 -1.664022 0.000002 0.000004 2.173903 -3.414321 -0.474916 -7.835834 2.681601 -0.377604 5.432496 -15.973719 7.324695 -12.562509 5.161504 0.000004 -0.000001 185.802742 -191.831764 166.055846 0.000002 -0.000003 -10.869098 -0.760310 -6.882828 5.483709 -0.000003 -0.000003 -13.344794 4.261622 8.673783 -72.360294 -2.381901 -1.419605 6.136591 -6.903568 -11.061767 14.322032 -4.550511 -0.000001 0.000004 -1194.225245 -500.227045 -382.495839 -0.000003 -0.000000 -11.106509 693.913397 -3.371875 719.781399 0.000006 -0.000003 -12.874298 -379.843841 10.431064 -7.883205 2.431902 0.469613 -2.489400 -304.096196 -42.288877 4.300083 -0.000003 -0.000004 -18.200197 367.173047 36.358275 -10.751738 -0.000001 0.000002 -16.279900 -20.250970 59.307550 -11.953815 -1.987997 -0.073498 -2.712999 -5.152787 -9.337477 -5.942653 -0.000002 -0.000004 -19.547806 -1648.224094 160.880461 -183.557618 -0.000005 0.000002 -14.881201 1988.927481 147.134323 -518.304752
-37.014008 -46.333691 44.636101 4706.615820 11.575455 4.345541 -0.780001 1.005795 5.403089 -29.047972 -19.067767 0.079983 -0.000000 0.000004 4.236799 20.511879 1.968511 1.645158 -0.000003 -0.000007 9.874402 -61.426063 10.013835 -1.680812 -0.000000 0.000003 2.173893 -3.363925 -0.553789 -7.755354 2.681596 -0.377603 5.432500 -15.986725 7.310017 -12.928721 5.161498 -0.000001 -0.000005 185.056995 -192.237778 166.046393 -0.000000 0.000000 -10.869091 -0.981103 -7.593637 6.388281 -0.000005 -0.000004 -13.344805 3.787505 8.656286 -72.120664 -2.381899 -1.419608 6.136591 -7.679322 -11.927103 14.064336 -4.550513 -0.000000 0.000006 -1192.634631 -500.092900 -382.580288 -0.000003 -0.000002 -11.106503 694.326049 -3.534956 719.679985 0.000001 -0.000004 -12.874294 -379.654890 10.355251 -7.091234 2.431896 0.469604 -2.489399 -302.095251 -42.982145 5.305885 0.000001 -0.000006 -18.200203 366.603191 36.685294 -11.130619 -0.000001 -0.000002 -16.279898 -20.432103 59.265770 -11.978349 -1.988007 -0.073501 -2.713001 -5.112765 -9.416570 -6.555073 -0.000007 -0.000002 -19.547794 -1648.291413 160.817951 -183.605785 -0.000002 0.000000 -14.881201 1989.094903 146.932136 -518.079520
